<svg preserveAspectRatio="xMidYMid meet" data-bbox="20 31.997 160 136.004" viewBox="20 31.997 160 136.004" height="200" width="200" xmlns="http://www.w3.org/2000/svg" data-type="color" role="presentation" aria-hidden="true" aria-label=""><defs><style>#comp-mmdhv0dm svg [data-color="1"] {fill: #375232;}</style></defs>
    <g>
        <path d="M101.212 167.796q-1.083 0-2.173-.035a.345.345 0 0 1-.334-.358c.006-.191.143-.322.357-.335q1.079.035 2.149.035c34.892.002 63.83-27.832 64.977-63.008 1.17-35.895-27.039-66.051-62.883-67.224a.345.345 0 0 1-.334-.358.34.34 0 0 1 .357-.335c36.225 1.185 64.735 31.662 63.552 67.939-1.159 35.55-30.408 63.678-65.668 63.679" fill="#375232" data-color="1"></path>
        <path d="M42.872 86.132c-3.077-12.515-5.116-25.842 7.444-37.058-2.117 6.05-6.09 13.824-6.463 21.499-.294 3.207.847 5.934.433 9.425-.01 3.41-1.097 7.663-.246 10.923 1.048-5.934 1.202-12.371.597-17.244-.745-4.636.979-9.971 2.218-14.521-.212-5.943 17.199-21.404 14.346-21.806-6.347 6.594-17.482 15.684-20.681 26.32-.459 19.806 2.131 19.209 2.601 36.202-.024-4.807.246-9.481-.249-13.74" fill="#375232" data-color="1"></path>
        <path d="M43.647 108.258c-.229-3.228-.383-5.982-.526-8.387.012 2.791.127 5.616.526 8.387" fill="#375232" data-color="1"></path>
        <path d="M98.425 167.308c-9.776-2.668-19.424-5.667-28.332-9.004-7.455-3.627-14.366-8.137-19.234-14.569 13.256 10.37 29.891 15.715 46.099 22.148-.108-.105-.219-.209-.322-.319-5.472-2.041-10.893-4.368-14.881-7.946 3.708 1.692 8.362 3.642 12.6 5.555a80 80 0 0 1-2.608-2.982c-8.993-5.173-17.494-10.337-27.076-15.533-3.218-3.054-5.128-7.43-7.668-11.084-8.47-12.937-14.464-27.45-11.804-42.226 1.154-6.44 5.457-11.874 7.999-17.68 2.424-4.534 4.412-8.909 6.762-12.951 4.342-5.489 11.902-9.211 18.562-12.727 9.866-4.942 20.781-9.059 28.269-11.528-1.084.037-1.842.255-2.705.434-9.616 3.862-29.064 10.92-41.029 19.834.908-1.581 3.176-2.767 4.292-4.239 2.061-1.4 4.52-2.624 6.619-3.916 8.914-5.679 19.482-9.603 30.161-11.689-15.384 1.909-27.026 9.851-39.897 16.571 1.275-2.525 2.52-5.913 5.837-7.868 5.694-3.03 11.863-5.429 18.38-7.168 1.437-.493 3.72-.895 4.311-1.474-1.568-.18-3.144.47-4.709.836a215 215 0 0 0-16.458 4.679c1.568-2.077 3.727-4.036 5.983-5.748 2.211-1.973 7.759-3.43 10.075-4.717-6.744 1.537-12.665 4.368-17.017 7.81-1.838 1.474-3.865 3.072-5.518 4.781-1.463 2.247-5.715 3.781-8.004 6.152-10.244 10.032-9.542 22.33-11.783 35.696 4.602-9.707 6.86-19.448 11.833-27.558 1.713-3.923 4.469-7.341 9.04-10.184-4.287 7.244-9.351 16.81-14.634 27.114-2.037 4.351-5.16 8.269-6.363 12.948-.648 4.914-1.522 9.991-.609 15.015.623 4.754 1.46 9.679 3.226 14.325 3.268 6.4 7.588 13.138 10.907 19.588-3.465-3.835-5.841-8.551-8.174-13.001-1.844-4.362-5.324-7.722-6.067-12.262a34 34 0 0 1-.842-4.163c.111 1.586.241 3.272.398 5.097-2.84-3.81-6.633-6.734-7.89-11.653-2.061-7.803-1.752-16.648-2.8-23.341-.14 2.395-.351 4.956-.843 7.613-.652 4.334-.113 8.954-.607 13.357-3.889-5.049-7.833-9.976-9.951-16.08-1.259-1.791-.619-5.937-1.779-7.049-1.33 13.149 5.125 24.747 13.609 32.678 2.382 5.938 5.468 12.186 8.746 18.024-1.813-1.589-3.647-3.51-4.935-5.725-.584-1.547-1.717-.782-.833.54 3.585 7.419 9.014 13.894 15.444 19.129 8.523 6.693 19.041 10.858 27.932 17.749-10.18-3.654-20.488-7.998-28.795-15.364-1.506-1.025-4.719-5.012-5.717-5.094-.329.114-.127.449.185.797 3.352 3.838 7.138 7.698 10.572 11.432-9.161-2.148-18.418-8.942-26.367-14.758 7.514 10.712 20.174 14.62 30.923 18.847 11.813 6.267 24.948 9.351 38.219 13.544zM81.01 34.318c-.862.903-3.223 1.702-4.418 2.73-3.277 2.114-3.955 5.453-10.152 7.164 3.15-3.962 8.433-7.533 14.57-9.894M53.89 64.493c-1.552 3.058-2.559 6.573-4.28 9.78 1.329-6.782 4.185-13.415 8.635-19.066-.385 2.425-3.348 6.139-4.355 9.286m3.755-9.319c-4.964 6.342-7.078 13.898-10.239 21.648 2.582-20.6 5.864-28.443 33.705-37.01.103.004.184.007.266.006-8.452 3.813-18.489 8.364-23.732 15.356M26.033 99.188c-1.911-4.34-4.168-7.129-4.289-12.09 3.231 2.872 5.79 7.742 9.003 11.592 1.135 1.806.937 4.987 1.343 7.355-2.134-1.697-4.458-4.657-6.057-6.857m35.06 43.105q-.819-.44-1.631-.893c-4.451-3.558-7.199-8.824-10.737-13.094-3.063-3.962-5.865-8.138-7.923-12.592 6.896 7.198 13.739 17.386 20.291 26.579m-11.739-17.589c-3.066-2.756-5.634-6.581-8.045-9.984q-.023.025-.047.045c-2.059-2.005-3.412-5.069-3.767-8.146 4.665 4.276 9.075 10.911 11.859 18.085M33.397 83.901c.924 8.529 1.391 18.435 4.844 27.401 3.172 9.374 10.255 17.052 15.833 25.425-3.943-2.742-7.471-7.043-10.669-10.771a2 2 0 0 1-.085.104c-9.004-12.322-12.673-27.812-9.923-42.159m6.649 41.614c5.702 5.643 11.958 11.686 19.103 16.115 10.043 6.948 23.145 12.412 33.378 19.65-4.674-1.452-9.097-3.879-13.571-5.709-14.462-6.376-32.029-15.702-38.91-30.056m-3.994 15.662-.066.191c-.854-.785-1.94-1.327-2.575-2.359 7.271 5.44 15.603 9.014 23.649 13.073-6.703-1.392-14.775-5.535-21.008-10.905" fill="#375232" data-color="1"></path>
        <path d="M95.119 43.148c.217.508.803.761 1.308.564a1.001 1.001 0 0 0-.752-1.857.973.973 0 0 0-.556 1.293" fill="#375232" data-color="1"></path>
        <path d="M89.662 45.798c.267.484.875.677 1.358.429a1.002 1.002 0 0 0-.934-1.773.977.977 0 0 0-.424 1.344" fill="#375232" data-color="1"></path>
        <path d="M84.498 48.985c.315.454.939.585 1.395.291a1 1 0 1 0-1.108-1.669.974.974 0 0 0-.287 1.378" fill="#375232" data-color="1"></path>
        <path d="M79.682 52.676c.36.421.995.488 1.419.149a1 1 0 0 0 .147-1.398 1.004 1.004 0 0 0-1.418-.149.97.97 0 0 0-.148 1.398" fill="#375232" data-color="1"></path>
        <path d="M75.262 56.836c.4.382 1.039.385 1.428.008a.995.995 0 0 0 .007-1.404 1.01 1.01 0 0 0-1.428-.007.967.967 0 0 0-.007 1.403" fill="#375232" data-color="1"></path>
        <path d="M71.281 61.42c.436.34 1.074.28 1.424-.133a.99.99 0 0 0-.131-1.395 1.01 1.01 0 0 0-1.425.134.964.964 0 0 0 .132 1.394" fill="#375232" data-color="1"></path>
        <path d="M67.778 66.382a1.046 1.046 0 0 0 1.407-.275.984.984 0 0 0-.267-1.372 1.017 1.017 0 0 0-1.407.274.96.96 0 0 0 .267 1.373" fill="#375232" data-color="1"></path>
        <path d="M64.786 71.669a1.054 1.054 0 0 0 1.377-.411.98.98 0 0 0-.398-1.336 1.024 1.024 0 0 0-1.377.411c-.275.492-.098 1.091.398 1.336" fill="#375232" data-color="1"></path>
        <path d="M62.825 76.119a1.035 1.035 0 0 0 1.326-.527 1 1 0 0 0-.517-1.307 1.006 1.006 0 0 0-1.326.526.97.97 0 0 0 .517 1.308" fill="#375232" data-color="1"></path>
        <path d="M60.832 81.856c.531.153 1.101-.14 1.271-.655a.99.99 0 0 0-.642-1.247 1.01 1.01 0 0 0-1.271.656.965.965 0 0 0 .642 1.246" fill="#375232" data-color="1"></path>
        <path d="M59.423 87.766a1.047 1.047 0 0 0 1.204-.779.985.985 0 0 0-.758-1.175 1.02 1.02 0 0 0-1.204.779.96.96 0 0 0 .758 1.175" fill="#375232" data-color="1"></path>
        <path d="M58.618 93.789a1.05 1.05 0 0 0 1.122-.896.98.98 0 0 0-.869-1.092 1.02 1.02 0 0 0-1.122.896.953.953 0 0 0 .869 1.092" fill="#375232" data-color="1"></path>
        <path d="M58.424 99.864a1.06 1.06 0 0 0 1.03-1.005.977.977 0 0 0-.972-.998 1.03 1.03 0 0 0-1.03 1.006.95.95 0 0 0 .972.997" fill="#375232" data-color="1"></path>
        <path d="M58.859 105.927c.532-.067.956-.563.915-1.103a.97.97 0 0 0-1.065-.894 1.03 1.03 0 0 0-.925 1.104c.042.562.511.964 1.075.893" fill="#375232" data-color="1"></path>
        <path d="M59.898 111.915c.524-.12.893-.656.8-1.19a.97.97 0 0 0-1.149-.782 1.03 1.03 0 0 0-.81 1.192c.098.555.606.907 1.159.78" fill="#375232" data-color="1"></path>
        <path d="M61.527 117.771c.523-.177.831-.744.685-1.266a.97.97 0 0 0-1.222-.664 1.03 1.03 0 0 0-.686 1.267.95.95 0 0 0 1.223.663" fill="#375232" data-color="1"></path>
        <path d="M63.294 122.301c.508-.218.76-.805.564-1.31a1 1 0 0 0-1.292-.557 1.006 1.006 0 0 0-.564 1.31.973.973 0 0 0 1.292.557" fill="#375232" data-color="1"></path>
        <path d="M65.941 127.765c.483-.268.675-.877.428-1.359a1.001 1.001 0 1 0-1.769.935.97.97 0 0 0 1.341.424" fill="#375232" data-color="1"></path>
        <path d="M69.123 132.936c.454-.316.584-.941.29-1.396a1 1 0 1 0-1.666 1.109.97.97 0 0 0 1.376.287" fill="#375232" data-color="1"></path>
        <path d="M72.808 137.759c.42-.36.487-.996.149-1.42a.994.994 0 0 0-1.396-.147c-.434.343-.5.979-.149 1.42a.97.97 0 0 0 1.396.147" fill="#375232" data-color="1"></path>
        <path d="M76.963 142.186a1.04 1.04 0 0 0 .008-1.43.99.99 0 0 0-1.402-.007 1.01 1.01 0 0 0-.007 1.43.965.965 0 0 0 1.401.007" fill="#375232" data-color="1"></path>
        <path d="M81.541 146.172a1.045 1.045 0 0 0-.134-1.426.985.985 0 0 0-1.392.131 1.015 1.015 0 0 0 .134 1.427.96.96 0 0 0 1.392-.132" fill="#375232" data-color="1"></path>
        <path d="M86.495 149.681a1.05 1.05 0 0 0-.274-1.409.98.98 0 0 0-1.37.266 1.02 1.02 0 0 0 .273 1.41.957.957 0 0 0 1.371-.267" fill="#375232" data-color="1"></path>
        <path d="M91.775 152.677c.245-.496.061-1.113-.411-1.378a.976.976 0 0 0-1.335.398 1.03 1.03 0 0 0 .411 1.379.95.95 0 0 0 1.335-.399" fill="#375232" data-color="1"></path>
        <path d="M96.218 154.641a1.04 1.04 0 0 0-.526-1.328.993.993 0 0 0-1.304.519c-.226.506.01 1.1.525 1.328a.97.97 0 0 0 1.305-.519" fill="#375232" data-color="1"></path>
        <path d="M101.947 156.636a1.045 1.045 0 0 0-.654-1.273.99.99 0 0 0-1.246.642c-.173.526.12 1.095.655 1.272a.96.96 0 0 0 1.245-.641" fill="#375232" data-color="1"></path>
        <path d="M107.849 158.047c.098-.545-.25-1.084-.778-1.205a.985.985 0 0 0-1.174.76 1.02 1.02 0 0 0 .778 1.205.96.96 0 0 0 1.174-.76" fill="#375232" data-color="1"></path>
        <path d="M113.863 158.855c.043-.552-.357-1.055-.894-1.124a.98.98 0 0 0-1.091.871 1.024 1.024 0 0 0 .895 1.124.956.956 0 0 0 1.09-.871" fill="#375232" data-color="1"></path>
        <path d="M119.929 159.048c-.013-.553-.462-1.015-1.003-1.031a.977.977 0 0 0-.997.973 1.027 1.027 0 0 0 1.004 1.031.95.95 0 0 0 .996-.973" fill="#375232" data-color="1"></path>
        <path d="M125.983 158.613c-.066-.534-.561-.958-1.101-.917a.97.97 0 0 0-.893 1.067c.047.552.541.966 1.103.926a.95.95 0 0 0 .891-1.076" fill="#375232" data-color="1"></path>
        <path d="M131.962 157.571c-.12-.524-.655-.893-1.188-.8a.974.974 0 0 0-.782 1.151 1.03 1.03 0 0 0 1.191.811.95.95 0 0 0 .779-1.162" fill="#375232" data-color="1"></path>
        <path d="M137.81 155.94c-.177-.524-.743-.831-1.265-.687a.975.975 0 0 0-.663 1.225c.156.531.723.838 1.265.687a.95.95 0 0 0 .663-1.225" fill="#375232" data-color="1"></path>
        <path d="M142.334 154.171c-.219-.509-.804-.761-1.308-.564a1 1 0 0 0-.556 1.293c.198.517.783.769 1.308.564a.975.975 0 0 0 .556-1.293" fill="#375232" data-color="1"></path>
        <path d="M147.789 151.52a1.03 1.03 0 0 0-1.357-.429 1.002 1.002 0 0 0 .934 1.772.974.974 0 0 0 .423-1.343" fill="#375232" data-color="1"></path>
        <path d="M152.953 148.334a1.03 1.03 0 0 0-1.394-.29 1 1 0 1 0 1.107 1.669.974.974 0 0 0 .287-1.379" fill="#375232" data-color="1"></path>
        <path d="M157.769 144.643a1.033 1.033 0 0 0-1.418-.149 1 1 0 0 0-.147 1.398c.343.434.977.501 1.418.149a.97.97 0 0 0 .147-1.398" fill="#375232" data-color="1"></path>
        <path d="M162.19 140.482a1.037 1.037 0 0 0-1.428-.007.994.994 0 0 0-.007 1.404 1.01 1.01 0 0 0 1.428.007.97.97 0 0 0 .007-1.404" fill="#375232" data-color="1"></path>
        <path d="M166.171 135.898a1.043 1.043 0 0 0-1.425.134.99.99 0 0 0 .132 1.395 1.01 1.01 0 0 0 1.424-.134.964.964 0 0 0-.131-1.395" fill="#375232" data-color="1"></path>
        <path d="M169.674 130.937a1.05 1.05 0 0 0-1.408.274.984.984 0 0 0 .266 1.372 1.02 1.02 0 0 0 1.408-.274.956.956 0 0 0-.266-1.372" fill="#375232" data-color="1"></path>
        <path d="M172.666 125.649a1.054 1.054 0 0 0-1.377.411.98.98 0 0 0 .398 1.336 1.023 1.023 0 0 0 1.377-.411.95.95 0 0 0-.398-1.336" fill="#375232" data-color="1"></path>
        <path d="M174.627 121.201a1.034 1.034 0 0 0-1.326.527.996.996 0 0 0 .518 1.306 1.005 1.005 0 0 0 1.326-.526.97.97 0 0 0-.518-1.307" fill="#375232" data-color="1"></path>
        <path d="M176.62 115.462a1.04 1.04 0 0 0-1.271.656.99.99 0 0 0 .64 1.247 1.01 1.01 0 0 0 1.271-.655.965.965 0 0 0-.64-1.248" fill="#375232" data-color="1"></path>
        <path d="M178.028 109.552c-.544-.099-1.083.25-1.202.779a.984.984 0 0 0 .758 1.175 1.017 1.017 0 0 0 1.203-.779.96.96 0 0 0-.759-1.175" fill="#375232" data-color="1"></path>
        <path d="M178.835 103.53c-.551-.043-1.054.358-1.122.896a.98.98 0 0 0 .869 1.092 1.02 1.02 0 0 0 1.122-.896c.071-.561-.318-1.05-.869-1.092" fill="#375232" data-color="1"></path>
        <path d="M179.028 97.454a1.057 1.057 0 0 0-1.03 1.006.975.975 0 0 0 .972.997 1.025 1.025 0 0 0 1.029-1.005.95.95 0 0 0-.971-.998" fill="#375232" data-color="1"></path>
        <path d="M178.594 91.392c-.532.066-.956.562-.915 1.103a.973.973 0 0 0 1.065.895c.551-.047.965-.542.924-1.105-.043-.562-.511-.964-1.074-.893" fill="#375232" data-color="1"></path>
        <path d="M177.553 85.404c-.523.12-.892.655-.799 1.19a.97.97 0 0 0 1.149.783c.542-.103.905-.636.809-1.193-.097-.556-.606-.908-1.159-.78" fill="#375232" data-color="1"></path>
        <path d="M175.925 79.548c-.524.177-.831.744-.686 1.267a.973.973 0 0 0 1.222.664c.531-.156.838-.724.686-1.267a.947.947 0 0 0-1.222-.664" fill="#375232" data-color="1"></path>
        <path d="M174.157 75.019c-.507.217-.76.804-.563 1.31a1 1 0 0 0 1.291.557c.516-.198.768-.784.563-1.31a.97.97 0 0 0-1.291-.557" fill="#375232" data-color="1"></path>
        <path d="M171.511 69.554a1.033 1.033 0 0 0-.429 1.36 1 1 0 1 0 1.77-.936.97.97 0 0 0-1.341-.424" fill="#375232" data-color="1"></path>
        <path d="M168.329 64.383a1.033 1.033 0 0 0-.29 1.396 1 1 0 0 0 1.376.287c.466-.297.597-.922.29-1.396a.97.97 0 0 0-1.376-.287" fill="#375232" data-color="1"></path>
        <path d="M164.643 59.559a1.04 1.04 0 0 0-.149 1.421.995.995 0 0 0 1.396.147c.434-.343.5-.979.149-1.42a.97.97 0 0 0-1.396-.148" fill="#375232" data-color="1"></path>
        <path d="M160.489 55.133c-.381.4-.385 1.041-.007 1.43a.99.99 0 0 0 1.402.007 1.01 1.01 0 0 0 .007-1.43.965.965 0 0 0-1.402-.007" fill="#375232" data-color="1"></path>
        <path d="M155.911 51.146c-.339.437-.279 1.076.134 1.426a.986.986 0 0 0 1.393-.131 1.017 1.017 0 0 0-.134-1.427.96.96 0 0 0-1.393.132" fill="#375232" data-color="1"></path>
        <path d="M150.957 47.638c-.294.469-.172 1.1.273 1.41a.98.98 0 0 0 1.371-.267 1.02 1.02 0 0 0-.274-1.409.954.954 0 0 0-1.37.266" fill="#375232" data-color="1"></path>
        <path d="M145.677 44.642c-.245.496-.061 1.113.41 1.379a.976.976 0 0 0 1.335-.399 1.026 1.026 0 0 0-.41-1.379.95.95 0 0 0-1.335.399" fill="#375232" data-color="1"></path>
        <path d="M141.235 42.678a1.037 1.037 0 0 0 .526 1.327.993.993 0 0 0 1.304-.518c.225-.505-.01-1.1-.526-1.328a.97.97 0 0 0-1.304.519" fill="#375232" data-color="1"></path>
        <path d="M135.505 40.683c-.152.531.14 1.102.654 1.273a.99.99 0 0 0 1.245-.642 1.013 1.013 0 0 0-.654-1.273.96.96 0 0 0-1.245.642" fill="#375232" data-color="1"></path>
        <path d="M129.603 39.272c-.099.545.25 1.084.778 1.205a.985.985 0 0 0 1.173-.76c.12-.54-.229-1.08-.778-1.205a.96.96 0 0 0-1.173.76" fill="#375232" data-color="1"></path>
        <path d="M123.589 38.465c-.043.551.358 1.055.895 1.124a.98.98 0 0 0 1.09-.87 1.02 1.02 0 0 0-.894-1.124.953.953 0 0 0-1.091.87" fill="#375232" data-color="1"></path>
        <path d="M117.523 38.271c.013.553.462 1.015 1.004 1.031a.977.977 0 0 0 .997-.973 1.027 1.027 0 0 0-1.004-1.031.95.95 0 0 0-.997.973" fill="#375232" data-color="1"></path>
        <path d="M111.468 38.706c.067.534.562.957 1.102.917a.973.973 0 0 0 .893-1.067 1.03 1.03 0 0 0-1.103-.926c-.561.043-.962.511-.892 1.076" fill="#375232" data-color="1"></path>
        <path d="M105.489 39.748c.121.524.655.894 1.189.8a.974.974 0 0 0 .782-1.151 1.03 1.03 0 0 0-1.191-.81.95.95 0 0 0-.78 1.161" fill="#375232" data-color="1"></path>
        <path d="M99.642 41.378c.176.524.743.832 1.265.687a.975.975 0 0 0 .663-1.224 1.03 1.03 0 0 0-1.265-.687.95.95 0 0 0-.663 1.224" fill="#375232" data-color="1"></path>
    </g>
</svg>